<svg xmlns="http://www.w3.org/2000/svg" width="900" height="1180" viewBox="0 0 900 1180" preserveAspectRatio="xMidYMid slice" role="img" aria-label="Maquillaje profesional">
  <defs>
    <linearGradient id="bgg38" x1="0" y1="0" x2="0.4" y2="1">
      <stop offset="0" stop-color="#f9f5f0"/><stop offset="0.55" stop-color="#efe6db"/><stop offset="1" stop-color="#e0d3c2"/>
    </linearGradient>
    <radialGradient id="lightg38" cx="0.32" cy="0.26" r="0.75">
      <stop offset="0" stop-color="#fffaf3" stop-opacity="0.95"/><stop offset="0.45" stop-color="#fffaf3" stop-opacity="0.22"/><stop offset="1" stop-color="#fffaf3" stop-opacity="0"/>
    </radialGradient>
    <radialGradient id="shadowg38" cx="0.78" cy="0.84" r="0.7">
      <stop offset="0" stop-color="#bdac96" stop-opacity="0.5"/><stop offset="1" stop-color="#bdac96" stop-opacity="0"/>
    </radialGradient>
    <radialGradient id="vigg38" cx="0.5" cy="0.42" r="0.85">
      <stop offset="0.6" stop-color="#000" stop-opacity="0"/><stop offset="1" stop-color="#000" stop-opacity="0.18"/>
    </radialGradient>
    <filter id="graing38"><feTurbulence type="fractalNoise" baseFrequency="0.9" numOctaves="2" stitchTiles="stitch" seed="38"/><feColorMatrix type="saturate" values="0"/><feComponentTransfer><feFuncA type="linear" slope="0.07"/></feComponentTransfer></filter>
    <filter id="softg38" x="-30%" y="-30%" width="160%" height="160%"><feGaussianBlur stdDeviation="45"/></filter>
  </defs>
  <rect width="900" height="1180" fill="url(#bgg38)"/>
  <ellipse cx="270" cy="283.2" rx="360" ry="377.6" fill="#fffaf3" opacity="0.5" filter="url(#softg38)"/>
  <ellipse cx="738" cy="1014.8" rx="360" ry="354" fill="#bdac96" opacity="0.38" filter="url(#softg38)"/>
  <rect width="900" height="1180" fill="url(#lightg38)"/>
  <rect width="900" height="1180" fill="url(#shadowg38)"/>
  <g transform="translate(0 50) scale(1 1)">
    <g stroke="#8d7a62" fill="none" stroke-width="9" stroke-linecap="round" stroke-linejoin="round"  opacity="0.34">
      <g transform="rotate(-22 380 540)">
            <line x1="380" y1="360" x2="380" y2="600"/>
            <path d="M354 600 q26 130 0 180 q-26 -50 0 -180" fill="#8d7a62" fill-opacity="0.12"/>
            <line x1="354" y1="600" x2="406" y2="600"/>
          </g><g transform="rotate(0 450 540)">
            <line x1="450" y1="360" x2="450" y2="600"/>
            <path d="M424 600 q26 130 0 180 q-26 -50 0 -180" fill="#8d7a62" fill-opacity="0.12"/>
            <line x1="424" y1="600" x2="476" y2="600"/>
          </g><g transform="rotate(22 520 540)">
            <line x1="520" y1="360" x2="520" y2="600"/>
            <path d="M494 600 q26 130 0 180 q-26 -50 0 -180" fill="#8d7a62" fill-opacity="0.12"/>
            <line x1="494" y1="600" x2="546" y2="600"/>
          </g>
    </g></g>
  <rect width="900" height="1180" fill="url(#vigg38)"/>
  <rect width="900" height="1180" filter="url(#graing38)" opacity="0.5"/>
  
  
</svg>