<svg xmlns="http://www.w3.org/2000/svg" width="900" height="1180" viewBox="0 0 900 1180" preserveAspectRatio="xMidYMid slice" role="img" aria-label="Maquillaje de ojos">
  <defs>
    <linearGradient id="bgg5" x1="0" y1="0" x2="0.4" y2="1">
      <stop offset="0" stop-color="#262019"/><stop offset="0.55" stop-color="#3c3128"/><stop offset="1" stop-color="#5c4334"/>
    </linearGradient>
    <radialGradient id="lightg5" cx="0.32" cy="0.26" r="0.75">
      <stop offset="0" stop-color="#caa183" stop-opacity="0.95"/><stop offset="0.45" stop-color="#caa183" stop-opacity="0.22"/><stop offset="1" stop-color="#caa183" stop-opacity="0"/>
    </radialGradient>
    <radialGradient id="shadowg5" cx="0.78" cy="0.84" r="0.7">
      <stop offset="0" stop-color="#15110d" stop-opacity="0.5"/><stop offset="1" stop-color="#15110d" stop-opacity="0"/>
    </radialGradient>
    <radialGradient id="vigg5" cx="0.5" cy="0.42" r="0.85">
      <stop offset="0.6" stop-color="#000" stop-opacity="0"/><stop offset="1" stop-color="#000" stop-opacity="0.18"/>
    </radialGradient>
    <filter id="graing5"><feTurbulence type="fractalNoise" baseFrequency="0.9" numOctaves="2" stitchTiles="stitch" seed="5"/><feColorMatrix type="saturate" values="0"/><feComponentTransfer><feFuncA type="linear" slope="0.07"/></feComponentTransfer></filter>
    <filter id="softg5" x="-30%" y="-30%" width="160%" height="160%"><feGaussianBlur stdDeviation="45"/></filter>
  </defs>
  <rect width="900" height="1180" fill="url(#bgg5)"/>
  <ellipse cx="270" cy="283.2" rx="360" ry="377.6" fill="#caa183" opacity="0.5" filter="url(#softg5)"/>
  <ellipse cx="738" cy="1014.8" rx="360" ry="354" fill="#15110d" opacity="0.38" filter="url(#softg5)"/>
  <rect width="900" height="1180" fill="url(#lightg5)"/>
  <rect width="900" height="1180" fill="url(#shadowg5)"/>
  <g transform="translate(0 50) scale(1 1)">
    <g stroke="#e3c3a6" fill="none" stroke-width="9" stroke-linecap="round" stroke-linejoin="round"  opacity="0.34">
      <path d="M250 540 Q450 410 650 540 Q450 660 250 540 Z"/>
      <circle cx="450" cy="540" r="58" fill="#e3c3a6" fill-opacity="0.12"/>
      <line x1="290" y1="500" x2="282" y2="455"/><line x1="350" y1="494" x2="342" y2="447"/><line x1="410" y1="500" x2="402" y2="455"/><line x1="470" y1="494" x2="462" y2="447"/><line x1="530" y1="500" x2="522" y2="455"/><line x1="590" y1="494" x2="582" y2="447"/><line x1="610" y1="500" x2="602" y2="455"/>
    </g></g>
  <rect width="900" height="1180" fill="url(#vigg5)"/>
  <rect width="900" height="1180" filter="url(#graing5)" opacity="0.5"/>
  <g font-family="Arial, sans-serif" text-anchor="middle"><text x="450" y="1097.4" font-size="28" letter-spacing="5" fill="#e3c3a6" opacity="0.7">MAQUILLAJE DE OJOS</text></g>
  
</svg>