<svg xmlns="http://www.w3.org/2000/svg" width="900" height="1180" viewBox="0 0 900 1180" preserveAspectRatio="xMidYMid slice" role="img" aria-label="Resultado final">
  <defs>
    <linearGradient id="bgg10" x1="0" y1="0" x2="0.4" y2="1">
      <stop offset="0" stop-color="#f5e5d7"/><stop offset="0.55" stop-color="#e9c6ab"/><stop offset="1" stop-color="#d6a585"/>
    </linearGradient>
    <radialGradient id="lightg10" cx="0.32" cy="0.26" r="0.75">
      <stop offset="0" stop-color="#fdf0e3" stop-opacity="0.95"/><stop offset="0.45" stop-color="#fdf0e3" stop-opacity="0.22"/><stop offset="1" stop-color="#fdf0e3" stop-opacity="0"/>
    </radialGradient>
    <radialGradient id="shadowg10" cx="0.78" cy="0.84" r="0.7">
      <stop offset="0" stop-color="#b9876a" stop-opacity="0.5"/><stop offset="1" stop-color="#b9876a" stop-opacity="0"/>
    </radialGradient>
    <radialGradient id="vigg10" cx="0.5" cy="0.42" r="0.85">
      <stop offset="0.6" stop-color="#000" stop-opacity="0"/><stop offset="1" stop-color="#000" stop-opacity="0.18"/>
    </radialGradient>
    <filter id="graing10"><feTurbulence type="fractalNoise" baseFrequency="0.9" numOctaves="2" stitchTiles="stitch" seed="10"/><feColorMatrix type="saturate" values="0"/><feComponentTransfer><feFuncA type="linear" slope="0.07"/></feComponentTransfer></filter>
    <filter id="softg10" x="-30%" y="-30%" width="160%" height="160%"><feGaussianBlur stdDeviation="45"/></filter>
  </defs>
  <rect width="900" height="1180" fill="url(#bgg10)"/>
  <ellipse cx="270" cy="283.2" rx="360" ry="377.6" fill="#fdf0e3" opacity="0.5" filter="url(#softg10)"/>
  <ellipse cx="738" cy="1014.8" rx="360" ry="354" fill="#b9876a" opacity="0.38" filter="url(#softg10)"/>
  <rect width="900" height="1180" fill="url(#lightg10)"/>
  <rect width="900" height="1180" fill="url(#shadowg10)"/>
  <g transform="translate(0 50) scale(1 1)">
    <g stroke="#9c6f4f" fill="none" stroke-width="9" stroke-linecap="round" stroke-linejoin="round"  opacity="0.34">
      <path d="M540 330 C 470 380, 500 470, 470 520 C 440 575, 470 640, 430 700 C 405 740, 470 790, 540 800"/>
      <g transform="translate(360 430)"><path d="M0 -40 C6 -12 12 -6 40 0 C12 6 6 12 0 40 C-6 12 -12 6 -40 0 C-12 -6 -6 -12 0 -40 Z" fill="#9c6f4f" fill-opacity="0.45" stroke="none"/></g>
      <g transform="translate(300 620)"><path d="M0 -20 C3 -6 6 -3 20 0 C6 3 3 6 0 20 C-3 6 -6 3 -20 0 C-6 -3 -3 -6 0 -20 Z" fill="#9c6f4f" fill-opacity="0.4" stroke="none"/></g>
    </g></g>
  <rect width="900" height="1180" fill="url(#vigg10)"/>
  <rect width="900" height="1180" filter="url(#graing10)" opacity="0.5"/>
  <g font-family="Arial, sans-serif" text-anchor="middle"><text x="450" y="1097.4" font-size="28" letter-spacing="5" fill="#9c6f4f" opacity="0.7">RESULTADO FINAL</text></g>
  
</svg>